mtllib post_materials.mtl
v 0.06020532 0.02975595 -0.00505209
v -0.0597946 0.02975595 -0.005052269
v -0.06020532 -0.06001914 -0.005052209
v 0.05979457 -0.06001914 -0.005052149
v 0.06020528 0.06001902 0.005052328
v -0.05979467 0.06001902 0.005052269
vn 1.057493E-06 -2.461044E-07 -1
vn 9.481473E-07 0.3167008 -0.9485255
vn -9.51943E-07 -0.3167008 0.9485255
vn -1.053541E-06 2.461045E-07 1
vt -0.1761842 0.08808992
vt -0.1815507 0.0773568
vt -0.1735394 0.0733052
vt -0.1681728 0.08403831
vt -0.1519071 0.05485992
vt -0.1549079 0.05594368
vt -0.1589841 0.0446572
vt -0.1559833 0.04357344
vt 0.1519071 0.05485991
vt 0.1559833 0.04357343
vt 0.1589841 0.04465719
vt 0.1549079 0.05594368
vt 0.1815507 0.0773568
vt 0.1761842 0.08808992
vt 0.1681728 0.08403831
vt 0.1735394 0.0733052
o group1376193121
g mesh1376193121
usemtl mat12
f 4/4/1 3/3/1 2/2/1 1/1/1
f 2/8/2 6/7/2 5/6/2 1/5/2
f 5/12/3 6/11/3 2/10/3 1/9/3
f 3/16/4 4/15/4 1/14/4 2/13/4
